<?xml version="1.0" encoding="utf-8"?>
<!-- Generator: Adobe Illustrator 24.0.1, SVG Export Plug-In . SVG Version: 6.00 Build 0)  -->
<svg version="1.1" id="图层_1" xmlns="http://www.w3.org/2000/svg" xmlns:xlink="http://www.w3.org/1999/xlink" x="0px" y="0px"
	 viewBox="0 0 69 20" style="enable-background:new 0 0 69 20;" xml:space="preserve">
<style type="text/css">
	.st0{fill:#E10000;}
</style>
<rect x="37.5" y="7" width="2" height="6"/>
<polygon class="st0" points="37.2875938,0 29.1875916,14 31.4875946,14 39.5875931,0 "/>
<g>
	<rect x="42.5" y="1" width="5" height="2"/>
	<polygon points="41.5,5 41.5,7 44.5,7 44.5,11 43.5,11 43.5,13 46.5,13 46.5,7 48.5,7 48.5,5 	"/>
</g>
<polygon class="st0" points="41.1875916,0 33.0875931,14 35.3875923,14 43.4875946,0 "/>
<g>
	<polygon points="32.5,7.5 27.5,7.5 27.5,3 31.5,3 31.5,1 21.5,1 21.5,3 25.5,3 25.5,7.5 20.5,7.5 20.5,9.5 25.5,9.5 25.5,13 
		27.5,13 27.5,9.5 32.5,9.5 	"/>
	
		<rect x="22.6797428" y="3.7499969" transform="matrix(0.8660274 -0.4999966 0.4999966 0.8660274 0.5262205 12.4638968)" width="1.6829948" height="3.0000062"/>
	
		<rect x="27.978756" y="4.4085026" transform="matrix(0.499999 -0.866026 0.866026 0.499999 10.1927748 28.1543789)" width="3.0000062" height="1.6829948"/>
</g>
<g>
	<path d="M29.806797,16.7831497c0.0022831-0.1073532,0.006916-0.2202473,0.006916-0.3222542v-0.2081528h1.1327991v-0.497261
		h-0.3188992V14.5h-0.4995155v1.2554817h-0.3143845v-1.1275053h-0.5085487v1.8329191
		c0,0.1707649-0.0039501,0.3515511-0.0116634,0.5423584c-0.0077152,0.1911945-0.0214481,0.3839321-0.0415802,0.5782089
		c-0.0201302,0.1938915-0.050045,0.3796902-0.0901184,0.5562363C29.121727,18.3146305,29.0677319,18.4757595,29,18.6210804
		c0.0368748,0.0219727,0.0809002,0.0543537,0.1316986,0.0971394c0.0509853,0.0424023,0.0995274,0.0867329,0.1456223,0.1326027
		c0.0462818,0.0454865,0.0833473,0.0859604,0.1110039,0.1206512c0.0925655-0.1611252,0.1672592-0.3434525,0.2242641-0.5469837
		c0.0570068-0.2039146,0.1000919-0.4170818,0.1294422-0.6394978c0.0219402-0.1665726,0.0325241-0.3355541,0.0431767-0.5045815
		h0.4262352v1.6579132h0.504034v-0.2555676v-1.8996067H29.806797z"/>
	<path d="M32.7267113,17.9411087c-0.0114822-0.0145283-0.0203667-0.0319214-0.0316124-0.0467148
		c0.1069374-0.1895313,0.2018318-0.3965054,0.2814636-0.6255493c0.1384697-0.3997326,0.2355499-0.8630714,0.2912445-1.3903961
		l-0.3284988-0.0851898l-0.0921898,0.0142622h-0.0925636H31.621563v-0.5669813
		c0.1097355-0.0077572,0.2153072-0.013443,0.32831-0.0227909c0.2466526-0.0204296,0.4893551-0.0474129,0.7282963-0.0805626
		c0.2389374-0.0331516,0.4601936-0.0716991,0.6633873-0.1160278l-0.3096809-0.4972591
		c-0.1697044,0.0408602-0.3616066,0.0778646-0.5757141,0.1110163c-0.2142906,0.0331507-0.4376183,0.0624456-0.6703472,0.0878868
		c-0.2327309,0.0250568-0.4632072,0.0458717-0.6912327,0.0612907v1.5966253c0,0.1703777-0.003952,0.3557892-0.0116634,0.5562363
		c-0.0077171,0.2008305-0.0246468,0.4051323-0.0508022,0.6136703c-0.0261478,0.2081566-0.0647202,0.4097576-0.1155167,0.6036491
		c-0.0509853,0.1942768-0.1179638,0.3704376-0.2011223,0.5284824c0.0430832,0.0188885,0.0923767,0.0478001,0.1478767,0.0875034
		c0.0555019,0.0393162,0.1093121,0.079792,0.1618042,0.1206512C31.0776463,18.9321575,31.1207314,18.9683914,31.1545963,19
		c0.0790215-0.1349888,0.1422138-0.2872963,0.1970577-0.448761c0.0268097,0.0266685,0.0536423,0.0505447,0.080452,0.0887299
		c0.0400734,0.0566654,0.0792103,0.1144848,0.1177769,0.1726933c0.0385685,0.0585899,0.0701771,0.1113987,0.0948238,0.1588116
		c0.2800713-0.1623783,0.5208702-0.3732319,0.7308807-0.6219826c0.180809,0.2475224,0.3896675,0.4576035,0.6333313,0.6219826
		c0.0304832-0.0504951,0.0677338-0.1040764,0.1110077-0.1611252c0.0428925-0.0566654,0.0876732-0.1121712,0.1339531-0.1657543
		c0.0462837-0.0535793,0.08918-0.0963688,0.1294441-0.1279755C33.1334724,18.3716812,32.9148521,18.1797161,32.7267113,17.9411087z
		 M32.2550392,17.1242924c-0.104351-0.2529411-0.1850166-0.5219517-0.251545-0.8006248h0.6828346
		c-0.0484924,0.2586269-0.1078033,0.5067749-0.1906586,0.7320118c-0.0384979,0.1043434-0.0866165,0.1955318-0.1316986,0.2908859
		C32.3275642,17.2725792,32.2873726,17.2026882,32.2550392,17.1242924z M31.3826485,18.461834
		c0.0051498-0.0170345,0.0121803-0.0319939,0.0170975-0.0492935c0.0615234-0.2177906,0.1085606-0.4444485,0.1409187-0.6795864
		c0.0323582-0.2351398,0.0539951-0.46912,0.0647221-0.7011738c0.0080643-0.1713409,0.0120163-0.3316498,0.0140839-0.4865875
		c0.0681572,0.2845268,0.1446133,0.5603333,0.2380238,0.8180923c0.0622749,0.1722832,0.1325951,0.3348808,0.2103195,0.4885864
		c-0.0203209,0.0275116-0.0365944,0.0605183-0.0577354,0.0869236C31.8313198,18.1619129,31.6194496,18.3320007,31.3826485,18.461834
		z"/>
	<path d="M37.1649208,17.9958458c-0.0086555,0.001543-0.0166473,0.0029163-0.02528,0.0044556v-1.0467739h0.7508354V16.404232
		h-2.0072556v0.5492954h0.6998978v1.1441059c-0.0737381,0.0126495-0.149086,0.0257549-0.2203445,0.0377541
		c-0.2516632,0.0427856-0.4705009,0.079792-0.6557579,0.1114006l0.1528091,0.5731964
		c0.2041206-0.0443287,0.4267311-0.092514,0.6678314-0.1445503c0.2410965-0.0520401,0.4912491-0.1056213,0.7508316-0.161129
		c0.2595825-0.0551224,0.5161552-0.1110153,0.7697029-0.1680641l-0.0369759-0.506897
		C37.729744,17.8933105,37.4478951,17.9453487,37.1649208,17.9958458z"/>
	<path d="M39.7475815,17.6924782c-0.0913086-0.0628319-0.1694069-0.1275902-0.2343025-0.1938915
		c-0.012455,0.2998981-0.0316963,0.5176888-0.0577316,0.6533737c-0.0264091,0.1360722-0.0660286,0.2039165-0.1184731,0.2039165
		c-0.089798,0-0.1739388-0.0693855-0.2527924-0.20854c-0.0784836-0.1387711-0.150547-0.3315067-0.2154427-0.5778236
		c-0.0648994-0.2463169-0.1203613-0.53195-0.1667709-0.8572903c-0.0378685-0.2655659-0.0646591-0.5509109-0.084938-0.8480377
		h1.2625084v-0.5543079H39.439846l0.3239632-0.2840939c-0.0433922-0.0504961-0.099987-0.1071606-0.1694145-0.1703777
		c-0.0694199-0.0632181-0.1437531-0.1264353-0.2226067-0.1896524C39.2929306,14.6029205,39.2182236,14.5474129,39.1469116,14.5
		l-0.3659859,0.3126183c0.0709305,0.0539656,0.1441307,0.1137133,0.2199707,0.1800146
		c0.0758362,0.0663023,0.1467705,0.1318312,0.2135544,0.1965904c0.0431747,0.0420895,0.0777931,0.0819139,0.1085205,0.1206541
		h-0.7326317c-0.0074997-0.2596884-0.0105667-0.5221939-0.0041046-0.7906036h-0.5984039
		c0,0.2657833,0.0104446,0.5280724,0.020256,0.7906036H35.707016v0.5543079h2.3261147
		c0.018013,0.2674217,0.0403023,0.5292282,0.0709076,0.7794247c0.0399933,0.3299637,0.0924377,0.6352577,0.1573372,0.9162674
		c0.0648956,0.2810097,0.1452637,0.525013,0.2411003,0.7320118c0.0958328,0.2066116,0.2086449,0.3685112,0.3384399,0.4853077
		c0.1297951,0.1167984,0.2784538,0.1753902,0.4452248,0.1753902c0.1482773,0,0.2697716-0.030838,0.3640976-0.0925121
		c0.0939522-0.0612926,0.1697884-0.1734638,0.2271385-0.336132C39.9343491,18.3612747,39.9754753,18.1299896,40,17.8300934
		C39.9230309,17.8015671,39.8385162,17.7556973,39.7475815,17.6924782z"/>
</g>
</svg>
