<?xml version="1.0" encoding="utf-8"?>
<!-- Generator: Adobe Illustrator 24.0.1, SVG Export Plug-In . SVG Version: 6.00 Build 0)  -->
<svg version="1.1" id="图层_1" xmlns="http://www.w3.org/2000/svg" xmlns:xlink="http://www.w3.org/1999/xlink" x="0px" y="0px"
	 viewBox="0 0 69 20" style="enable-background:new 0 0 69 20;" xml:space="preserve">
<style type="text/css">
	.st0{fill:#E10000;}
</style>
<rect x="37" y="7" width="2" height="5"/>
<polygon class="st0" points="36.7875938,0 28.6875916,14 30.9875946,14 39.0875931,0 "/>
<rect x="41" y="2" width="5" height="2"/>
<rect x="40" y="5" width="7" height="2"/>
<rect x="43" y="7" width="2" height="5"/>
<rect x="42" y="10" width="1" height="2"/>
<polygon class="st0" points="40.6875916,0 32.5875931,14 34.8875923,14 42.9875946,0 "/>
<rect x="23" y="2" width="8" height="2"/>
<rect x="22" y="7" width="10" height="2"/>
<rect x="26" y="4" width="2" height="8"/>
<rect x="23.5212326" y="4.0792489" transform="matrix(0.8660255 -0.4999998 0.4999998 0.8660255 0.4743621 12.9288416)" width="1.6830139" height="3"/>
<rect x="28.1372547" y="4.7377405" transform="matrix(0.4999998 -0.8660255 0.8660255 0.4999998 9.9868631 28.4562435)" width="3" height="1.6830139"/>
<g>
	<path d="M30.2147675,16.5294666c0.0020218-0.0954247,0.0061264-0.195776,0.0061264-0.2864475v-0.1850262h1.003582v-0.442009
		h-0.2825222V14.5h-0.4425373v1.115984h-0.2785225v-1.0022268h-0.4505386v1.629262c0,0.1517906-0.0035,0.3124886-0.010334,0.4820957
		c-0.006834,0.1699505-0.019001,0.3412724-0.0368366,0.5139637c-0.0178337,0.172348-0.0443363,0.3375015-0.0798397,0.4944324
		C29.6078415,17.8907833,29.5600052,18.034008,29.5,18.1631832c0.0326691,0.0195313,0.0716724,0.0483131,0.1166763,0.0863457
		c0.0451698,0.0376911,0.0881748,0.077095,0.1290112,0.1178684c0.0410023,0.040432,0.0738392,0.0764103,0.098341,0.1072464
		c0.0820065-0.1432228,0.14818-0.3052921,0.1986828-0.486208c0.0505047-0.1812572,0.0886745-0.370739,0.1146774-0.5684433
		c0.0194378-0.1480637,0.0288143-0.2982693,0.0382519-0.4485168h0.377615v1.4737015h0.4465389v-0.2271709v-1.6885395H30.2147675z"/>
	<path d="M32.801609,17.5587635c-0.01017-0.0129147-0.0180435-0.0283756-0.0280037-0.0415249
		c0.094738-0.1684723,0.1788063-0.3524494,0.2493553-0.5560436c0.1226768-0.3553181,0.208683-0.7671738,0.2580223-1.2359076
		l-0.2910271-0.0757246l-0.0816727,0.0126781h-0.0820045H31.822525v-0.5039835
		c0.0972176-0.0068951,0.1907463-0.0119495,0.2908592-0.0202589c0.2185173-0.0181599,0.4335365-0.0421448,0.6452217-0.0716114
		c0.2116814-0.0294676,0.4076996-0.0637321,0.5877151-0.1031351l-0.2743568-0.442008
		c-0.1503448,0.0363197-0.3203583,0.0692129-0.5100441,0.0986805c-0.189846,0.0294676-0.3876991,0.0555077-0.5938797,0.0781221
		c-0.2061844,0.0222721-0.4103699,0.0407743-0.6123848,0.0544806v1.4192219c0,0.1514473-0.0035019,0.3162575-0.010334,0.4944324
		c-0.0068359,0.1785164-0.0218353,0.360117-0.0450058,0.5454845c-0.0231667,0.1850281-0.0573387,0.3642292-0.1023407,0.5365772
		c-0.0451698,0.1726913-0.1045074,0.3292789-0.1781807,0.4697628c0.0381699,0.0167885,0.0818405,0.0424881,0.1310081,0.0777798
		c0.0491714,0.0349483,0.0968437,0.0709267,0.1433487,0.1072464c0.0465012,0.0366631,0.084671,0.0688705,0.1146736,0.0969677
		c0.0700073-0.1199894,0.1259918-0.2553749,0.1745796-0.3988991c0.0237503,0.0237064,0.0475235,0.0449295,0.0712738,0.0788708
		c0.0355034,0.0503693,0.0701752,0.1017647,0.1043434,0.1535053c0.0341682,0.0520802,0.0621719,0.0990219,0.0840073,0.1411667
		c0.2481232-0.1443367,0.4614563-0.3317623,0.6475105-0.5528736c0.160183,0.2200203,0.3452187,0.4067593,0.5610886,0.5528736
		c0.0270042-0.0448856,0.0600052-0.0925121,0.0983429-0.1432228c0.038002-0.0503693,0.0776749-0.0997086,0.1186752-0.147337
		c0.0410042-0.0476265,0.0790062-0.0856609,0.1146774-0.1137562C33.161972,17.941494,32.9682884,17.7708588,32.801609,17.5587635z
		 M32.3837395,16.8327045c-0.0924454-0.2248363-0.1639099-0.4639568-0.2228508-0.7116661h0.6049461
		c-0.0429611,0.2298908-0.0955086,0.4504662-0.168911,0.6506767c-0.0341072,0.0927486-0.0767365,0.1738052-0.1166763,0.2585659
		C32.4479942,16.9645157,32.4123878,16.9023895,32.3837395,16.8327045z M31.6108627,18.0216293
		c0.0045624-0.0151405,0.0107918-0.0284386,0.0151482-0.0438156c0.0545044-0.1935921,0.0961761-0.3950653,0.1248436-0.6040764
		c0.0286674-0.209013,0.0478363-0.416996,0.0573387-0.6232662c0.0071449-0.1523037,0.0106468-0.2947998,0.0124779-0.4325218
		c0.0603828,0.2529125,0.1281166,0.4980736,0.2108727,0.7271938c0.055172,0.1531391,0.1174698,0.2976704,0.1863289,0.4342976
		c-0.0180016,0.024456-0.0324211,0.0537949-0.0511513,0.0772667C32.0083542,17.7550335,31.820652,17.9062233,31.6108627,18.0216293z
		"/>
	<path d="M36.9951248,17.6074181c-0.0076485,0.0013714-0.0147095,0.0025921-0.0223351,0.0039616v-0.9304657h0.6633873v-0.4882641
		h-1.7734795v0.4882641h0.6183853v1.016983c-0.0651512,0.0112438-0.1317215,0.022892-0.1946831,0.0335579
		c-0.2223511,0.0380325-0.4157028,0.0709267-0.5793839,0.0990238l0.1350136,0.5095081
		c0.1803474-0.0394039,0.3770294-0.0822353,0.5900497-0.1284904c0.2130165-0.046257,0.4340363-0.0938854,0.6633873-0.1432247
		c0.229351-0.0489979,0.4560394-0.0986805,0.6800575-0.1493912l-0.0326691-0.4505749
		C37.4941673,17.5162754,37.2451439,17.5625324,36.9951248,17.6074181z"/>
	<path d="M39.2769814,17.337759c-0.0806732-0.055851-0.1496773-0.1134148-0.207016-0.172348
		c-0.0110016,0.2665749-0.0280037,0.4601669-0.0510063,0.5807762c-0.0233345,0.1209526-0.0583382,0.1812592-0.1046753,0.1812592
		c-0.0793381,0-0.1536789-0.061676-0.2233505-0.1853695c-0.0693398-0.1233521-0.1330109-0.294672-0.1903496-0.5136204
		s-0.1063423-0.4728451-0.1473465-0.7620354c-0.0334587-0.2360592-0.0571289-0.4896994-0.0750465-0.7538118h1.1154671v-0.4927187
		H39.005085l0.286232-0.2525272c-0.0383377-0.0448856-0.0883408-0.0952539-0.1496811-0.1514473
		c-0.0613365-0.0561934-0.1270103-0.1123867-0.196682-0.1685801c-0.0696716-0.055851-0.1356773-0.1051912-0.1986847-0.147336
		l-0.3233604,0.2778826c0.0626717,0.0479698,0.127346,0.101079,0.1943512,0.1600132
		c0.0670052,0.0589352,0.1296768,0.1171837,0.1886826,0.1747475c0.038147,0.0374126,0.0687332,0.0728121,0.0958824,0.1072474
		h-0.6473045c-0.0066261-0.230834-0.0093346-0.4641724-0.003624-0.7027588H37.722187
		c0,0.2362518,0.0092278,0.4693985,0.0178947,0.7027588H35.707016v0.4927187h2.0551949
		c0.0159149,0.2377081,0.0356064,0.4704256,0.0626488,0.6928225c0.0353355,0.2933006,0.0816727,0.5646725,0.1390114,0.8144588
		s0.1283455,0.4666786,0.2130203,0.6506767c0.084671,0.1836548,0.1843452,0.3275661,0.2990227,0.431385
		c0.1146774,0.1038208,0.2460213,0.1559029,0.3933678,0.1559029c0.1310081,0,0.2383537-0.0274124,0.3216934-0.0822334
		c0.0830078-0.0544815,0.150013-0.1541901,0.2006836-0.2987843C39.4419937,17.9322433,39.4783325,17.7266579,39.5,17.460083
		C39.4319954,17.4347267,39.3573227,17.3939533,39.2769814,17.337759z"/>
</g>
</svg>
