<?xml version="1.0" encoding="utf-8"?>
<!-- Generator: Adobe Illustrator 24.0.1, SVG Export Plug-In . SVG Version: 6.00 Build 0)  -->
<svg version="1.1" id="图层_1" xmlns="http://www.w3.org/2000/svg" xmlns:xlink="http://www.w3.org/1999/xlink" x="0px" y="0px"
	 viewBox="0 0 69 20" style="enable-background:new 0 0 69 20;" xml:space="preserve">
<style type="text/css">
	.st0{fill:#E10000;}
</style>
<polygon class="st0" points="48.7875938,0 40.6875916,14 42.9875946,14 51.0875931,0 "/>
<polygon class="st0" points="52.6875916,0 44.5875931,14 46.8875923,14 54.9875946,0 "/>
<path d="M39,2v1c-0.8000031-0.5999999-1.9000015-1-3-1c-2.8000031,0-5,2.1999998-5,5s2.1999969,5,5,5
	c1.0999985,0,2.1999969-0.3999996,3-1v1h2V2H39z M36,10c-1.6999969,0-3-1.3000002-3-3s1.3000031-3,3-3s3,1.3000002,3,3
	S37.6999969,10,36,10z"/>
<path d="M21,2v1c-0.8000031-0.5999999-1.9000015-1-3-1c-2.8000031,0-5,2.1999998-5,5s2.1999969,5,5,5
	c1.0999985,0,2.1999969-0.3999996,3-1v1h2V2H21z M18,10c-1.6999969,0-3-1.3000002-3-3s1.3000031-3,3-3s3,1.3000002,3,3
	S19.6999969,10,18,10z"/>
<path d="M4,2v1c0.8000031-0.5999999,1.9000015-1,3-1c2.8000031,0,5,2.1999998,5,5s-2.1999969,5-5,5
	c-1.0999985,0-2.1999969-0.3999996-3-1v3H2V2H4z M7,10c1.6999969,0,3-1.3000002,3-3S8.6999969,4,7,4S4,5.3000002,4,7
	S5.3000031,10,7,10z"/>
<path d="M30,2c-1.5374146,0-2.9370728,0.5861206-3.9998169,1.5402832V2h-2v10h2V7.9981689C26.0011597,5.793457,27.7950439,4,30,4h1
	V2H30z"/>
<path d="M59.2421265,11.8256226c0.2368164-0.0609131,0.4736938-0.1225586,0.6955566-0.2159424
	c0.0922852-0.0388184,0.1751709-0.0974731,0.2650146-0.1418457c0.1998901-0.0988159,0.4021606-0.1942749,0.5858154-0.3179932
	c0.2480469-0.1674805,0.4804688-0.3615723,0.6990967-0.5748291c0.0150146-0.0145874,0.0335693-0.0252686,0.0483398-0.0400391
	l-1.4158325-1.4138794C59.5546875,9.6884766,58.8017578,10,58,10c-1.3037109,0-2.4160156-0.8359375-2.8291016-2h7.7283325
	C62.9648438,7.6768188,63,7.3425293,63,7c0-2.7568359-2.2431641-5-5-5s-5,2.2431641-5,5s2.2431641,5,5,5
	c0.3422241,0,0.6761475-0.0352173,0.9990234-0.100708C59.0825195,11.8824463,59.1598511,11.8466797,59.2421265,11.8256226z M58,4
	c1.3037109,0,2.4160156,0.8359375,2.8291016,2h-5.6582031C55.5839844,4.8359375,56.6962891,4,58,4z"/>
<path d="M67,12c-1.6542969,0-3-1.3457031-3-3V0h2v8.9931641C66,9.5517578,66.4482422,10,67,10V12z"/>
<g>
	<path d="M23.5403709,19v-4.1636467H22V14h4.1841946v0.8363533h-1.547905V19H23.5403709z"/>
	<path d="M27.0800323,19v-5h1.0962181v1.9769354h2.0731144V14h1.0889874v5h-1.0889874v-2.1592541h-2.0731144V19H27.0800323z"/>
	<path d="M32.6858749,19v-5h3.3621788v0.8363533H33.782093v1.1543112h1.9176292v0.8363543H33.782093v1.3360786h2.3473206V19
		H32.6858749z"/>
	<path d="M37.240097,19v-5h1.2143364l0.9335022,2.3481598c0.059063,0.1482716,0.1157112,0.3047791,0.1699486,0.4689732
		c0.0542374,0.164196,0.1084785,0.3250961,0.1633186,0.4821529h0.0367622
		c0.0590591-0.1570568,0.1163101-0.3179569,0.1705475-0.4821529c0.0542412-0.1641941,0.1060677-0.3207016,0.1554832-0.4689732
		L41.0024338,14h1.2143402v5h-0.9997978v-2.0851173c0-0.1619987,0.0072327-0.3393745,0.0223007-0.5332241
		c0.0144615-0.1933002,0.0331459-0.3876991,0.0554428-0.583745c0.0222969-0.1954975,0.0433922-0.3695774,0.0626755-0.52279
		h-0.0295296l-0.4513855,1.1740799l-0.8443108,2.0988464H39.402401l-0.8515434-2.0988464l-0.4369202-1.1740799h-0.0295296
		c0.019886,0.1532125,0.0397758,0.3272924,0.0590591,0.52279c0.019886,0.1960459,0.0385704,0.3904448,0.0560455,0.583745
		c0.0168762,0.1938496,0.0259132,0.3712254,0.0259132,0.5332241V19H37.240097z"/>
	<path d="M43.5564613,19v-5h3.3621826v0.8363533h-2.2659645v1.1543112h1.9176331v0.8363543h-1.9176331v1.3360786H47V19H43.5564613z"
		/>
</g>
</svg>
