<?xml version="1.0" encoding="utf-8"?>
<!-- Generator: Adobe Illustrator 24.0.1, SVG Export Plug-In . SVG Version: 6.00 Build 0)  -->
<svg version="1.1" id="图层_1" xmlns="http://www.w3.org/2000/svg" xmlns:xlink="http://www.w3.org/1999/xlink" x="0px" y="0px"
	 viewBox="0 0 69 20" style="enable-background:new 0 0 69 20;" xml:space="preserve">
<style type="text/css">
	.st0{fill:#E10000;}
</style>
<rect x="37.5" y="7" width="2" height="6"/>
<polygon class="st0" points="37.2875938,0 29.1875916,14 31.4875946,14 39.5875931,0 "/>
<g>
	<rect x="42.5" y="1" width="5" height="2"/>
	<polygon points="41.5,5 41.5,7 44.5,7 44.5,11 43.5,11 43.5,13 46.5,13 46.5,7 48.5,7 48.5,5 	"/>
</g>
<polygon class="st0" points="41.1875916,0 33.0875931,14 35.3875923,14 43.4875946,0 "/>
<g>
	<polygon points="32.5,7.5 27.5,7.5 27.5,3 31.5,3 31.5,1 21.5,1 21.5,3 25.5,3 25.5,7.5 20.5,7.5 20.5,9.5 25.5,9.5 25.5,13 
		27.5,13 27.5,9.5 32.5,9.5 	"/>
	
		<rect x="22.6797447" y="3.7499974" transform="matrix(0.8660274 -0.4999966 0.4999966 0.8660274 0.5262201 12.4638968)" width="1.682995" height="3.0000062"/>
	
		<rect x="27.9787579" y="4.408505" transform="matrix(0.499999 -0.866026 0.866026 0.499999 10.1927719 28.1543789)" width="3.0000057" height="1.6829948"/>
</g>
<g>
	<path d="M28.9534874,17.0368328c0.0026989-0.1192818,0.008173-0.2447186,0.008173-0.3580608v-0.2312794h1.3387623v-0.5525131
		H29.923542V14.5h-0.5903358v1.3949795h-0.3715458v-1.2527838h-0.6010113v2.0365763
		c0,0.1897392-0.0046692,0.3906136-0.0137844,0.6026211c-0.0091171,0.2124386-0.0253487,0.4265919-0.0491409,0.6424541
		c-0.0237904,0.215435-0.0591431,0.4218788-0.1065025,0.6180401C28.1438599,18.7384777,28.0800476,18.917511,28,19.0789776
		c0.0435791,0.0244141,0.0956097,0.0603943,0.1556435,0.107933c0.0602551,0.0471134,0.1176243,0.0963707,0.1721001,0.147337
		c0.0546951,0.0505409,0.0985012,0.0955105,0.1311855,0.1340561c0.109396-0.1790276,0.19767-0.3816128,0.2650394-0.6077595
		c0.0673714-0.226572,0.1182899-0.4634247,0.152977-0.7105522c0.0259304-0.1850815,0.0384388-0.372839,0.0510273-0.5606461
		h0.5037327v1.8421249h0.5956764v-0.2839642v-2.1106739H28.9534874z"/>
	<path d="M32.4042969,18.3234539c-0.0135727-0.0161419-0.0240707-0.0354671-0.0373611-0.0519047
		c0.1263809-0.2105904,0.2385292-0.4405613,0.3326378-0.695055c0.1636467-0.4441471,0.2783775-0.9589691,0.3442001-1.5448856
		l-0.3882294-0.0946541l-0.1089516,0.0158463h-0.1093903h-1.3389912v-0.6299791
		c0.1296864-0.0086193,0.2544537-0.0149364,0.3880024-0.0253229c0.2914982-0.0226994,0.5783272-0.052681,0.860714-0.0895138
		c0.2823792-0.0368357,0.5438652-0.0796661,0.7840042-0.1289206l-0.3659897-0.5525103
		c-0.2005577,0.0454006-0.4273529,0.0865164-0.6803894,0.1233521c-0.2532501,0.0368338-0.5171833,0.0693836-0.7922268,0.0976515
		c-0.2750454,0.0278416-0.5474262,0.0509691-0.8169117,0.0681009v1.7740288c0,0.1893082-0.0046711,0.3953209-0.0137844,0.6180401
		c-0.009119,0.2231445-0.0291271,0.4501476-0.0600376,0.6818562c-0.0309029,0.2312851-0.0764885,0.455286-0.1365204,0.6707211
		c-0.0602551,0.2158623-0.1394119,0.4115963-0.23769,0.5872021c0.0509167,0.0209885,0.1091728,0.053112,0.1747627,0.0972271
		c0.0655937,0.043684,0.1291885,0.0886574,0.1912231,0.1340561C30.4554005,19.4246197,30.506319,19.46488,30.5463409,19.5
		c0.0933895-0.1499882,0.1680717-0.3192177,0.2328873-0.4986229c0.031683,0.0296307,0.0633945,0.05616,0.0950794,0.0985889
		c0.0473595,0.0629616,0.0936108,0.1272049,0.1391907,0.1918812c0.0455799,0.0650997,0.0829353,0.1237755,0.1120644,0.1764565
		c0.3309937-0.1804199,0.6155739-0.4147015,0.8637676-0.6910915c0.2136841,0.2750244,0.4605179,0.5084476,0.7484818,0.6910915
		c0.036026-0.0561047,0.0800514-0.1156406,0.1311913-0.1790276c0.0506935-0.0629616,0.1036148-0.1246338,0.1583099-0.1841717
		c0.0546989-0.0595322,0.1053925-0.1070766,0.152977-0.1421947C32.8850136,18.8018684,32.6266441,18.5885735,32.4042969,18.3234539z
		 M31.8468647,17.4158802c-0.1233234-0.2810459-0.2186565-0.5799465-0.2972813-0.8895836h0.8069878
		c-0.0573082,0.2873631-0.1274033,0.5630836-0.2253227,0.8133469c-0.0454979,0.1159382-0.1023674,0.2172585-0.1556454,0.3232059
		C31.9325752,17.5806427,31.8850765,17.5029869,31.8468647,17.4158802z M30.8158569,18.9020386
		c0.0060863-0.0189285,0.0143948-0.0355492,0.0202065-0.0547714c0.07271-0.2419891,0.1282997-0.4938316,0.1665401-0.7550964
		c0.0382423-0.2612667,0.0638123-0.521244,0.0764904-0.7790813c0.0095291-0.1903782,0.0142002-0.3684998,0.0166435-0.5406532
		c0.0805492,0.3161411,0.170908,0.6225929,0.2813015,0.9089909c0.073597,0.1914272,0.1567039,0.3720913,0.24856,0.5428753
		c-0.0240154,0.0305672-0.0432491,0.0672417-0.0682335,0.0965805
		C31.3461056,18.5687923,31.0957127,18.7577782,30.8158569,18.9020386z"/>
	<path d="M37.6494522,18.3842735c-0.010231,0.0017147-0.0196762,0.0032406-0.0298767,0.0049496V17.226141h0.887352v-0.6103268
		H36.134716v0.6103268h0.8271523v1.2712288c-0.0871468,0.0140553-0.1761932,0.0286179-0.2604065,0.0419502
		c-0.2974205,0.0475388-0.5560493,0.0886574-0.7749901,0.1237774l0.1805954,0.6368847
		c0.2412338-0.0492535,0.5043182-0.1027927,0.7892532-0.1606102c0.284935-0.0578232,0.5805664-0.1173573,0.8873482-0.1790333
		c0.306778-0.0612469,0.6100006-0.1233501,0.9096489-0.1867371l-0.0437012-0.5632191
		C38.3169708,18.2703457,37.9838753,18.3281651,37.6494522,18.3842735z"/>
	<path d="M40.7016869,18.0471973c-0.1079102-0.0698128-0.2002068-0.1417656-0.2769012-0.215435
		c-0.0147209,0.3332214-0.0374603,0.5752106-0.0682297,0.7259712c-0.0312119,0.1511917-0.0780334,0.2265739-0.1400146,0.2265739
		c-0.1061249,0-0.2055626-0.077095-0.2987518-0.2317104c-0.0927544-0.1541901-0.1779213-0.3683414-0.2546158-0.6420269
		c-0.0766983-0.2736855-0.1422462-0.5910549-0.197094-0.9525452c-0.044754-0.2950726-0.076416-0.6121235-0.1003799-0.9422626
		h1.492054v-0.6158981h-0.5197525l0.3828659-0.3156605c-0.0512848-0.0561066-0.1181679-0.1190672-0.2002182-0.1893082
		c-0.0820427-0.0702429-0.1698914-0.1404839-0.2630806-0.2107248C40.1643715,14.614356,40.0760841,14.552681,39.991806,14.5
		l-0.4325294,0.3473539c0.083828,0.0599613,0.1703339,0.1263475,0.259964,0.200016
		c0.0896263,0.0736694,0.1734581,0.1464787,0.2523842,0.2184334c0.0510254,0.0467663,0.091938,0.0910158,0.1282501,0.1340609
		h-0.8658371c-0.0088615-0.2885427-0.0124893-0.5802155-0.0048523-0.8784485h-0.7072029
		c0,0.2953148,0.0123444,0.5867462,0.0239372,0.8784485h-2.7194481v0.6158981h2.7490463
		c0.0212898,0.2971344,0.0476303,0.5880299,0.0838013,0.8660259c0.0472641,0.3666267,0.1092415,0.705843,0.1859436,1.0180759
		c0.0766945,0.312233,0.1716728,0.5833473,0.284935,0.8133469c0.1132584,0.2295685,0.246582,0.4094563,0.3999748,0.5392303
		c0.1533928,0.129776,0.3290825,0.1948776,0.5261765,0.1948776c0.1752357,0,0.318821-0.0342636,0.430294-0.1027908
		c0.1110344-0.0681038,0.2006607-0.1927376,0.2684364-0.3734798C40.9224129,18.7903061,40.9710159,18.5333214,41,18.2001038
		C40.9090347,18.1684074,40.8091545,18.1174412,40.7016869,18.0471973z"/>
</g>
</svg>
