<?xml version="1.0" encoding="utf-8"?>
<svg version="1.1" id="图层_1" xmlns="http://www.w3.org/2000/svg" x="0px" y="0px" viewBox="0 0 69 20" style="enable-background:new 0 0 69 20;">
  <style type="text/css">
	.st0{fill:#E10000;}
</style>
  <rect x="37.5" y="7" width="2" height="6"/>
  <polygon class="st0" points="37.2875938,0 29.1875916,14 31.4875946,14 39.5875931,0 "/>
  <g>
    <rect x="42.5" y="1" width="5" height="2"/>
    <polygon points="41.5,5 41.5,7 44.5,7 44.5,11 43.5,11 43.5,13 46.5,13 46.5,7 48.5,7 48.5,5 &#9;"/>
  </g>
  <polygon class="st0" points="41.1875916,0 33.0875931,14 35.3875923,14 43.4875946,0 "/>
  <g>
    <polygon points="32.5,7.5 27.5,7.5 27.5,3 31.5,3 31.5,1 21.5,1 21.5,3 25.5,3 25.5,7.5 20.5,7.5 20.5,9.5 25.5,9.5 25.5,13 &#10;&#9;&#9;27.5,13 27.5,9.5 32.5,9.5 &#9;"/>
    <rect x="22.6797447" y="3.7499974" transform="matrix(0.8660274 -0.4999966 0.4999966 0.8660274 0.5262201 12.4638968)" width="1.682995" height="3.0000062"/>
    <rect x="27.9787579" y="4.408505" transform="matrix(0.499999 -0.866026 0.866026 0.499999 10.1927719 28.1543789)" width="3.0000057" height="1.6829948"/>
  </g>
  <path d="M 26.754 15.101 Q 26.892 15.119 27.042 15.131 Q 27.192 15.143 27.336 15.143 Q 27.45 15.143 27.693 15.143 Q 27.936 15.143 28.245 15.143 Q 28.554 15.143 28.866 15.143 Q 29.178 15.143 29.418 15.143 Q 29.658 15.143 29.76 15.143 Q 29.898 15.143 30.057 15.131 Q 30.216 15.119 30.36 15.101 L 30.36 15.719 Q 30.216 15.707 30.06 15.704 Q 29.904 15.701 29.76 15.701 Q 29.658 15.701 29.418 15.701 Q 29.178 15.701 28.869 15.701 Q 28.56 15.701 28.251 15.701 Q 27.942 15.701 27.696 15.701 Q 27.45 15.701 27.342 15.701 Q 27.192 15.701 27.036 15.704 Q 26.88 15.707 26.754 15.719 Z M 26.046 16.625 Q 26.172 16.637 26.313 16.646 Q 26.454 16.655 26.592 16.655 Q 26.664 16.655 26.898 16.655 Q 27.132 16.655 27.465 16.655 Q 27.798 16.655 28.179 16.655 Q 28.56 16.655 28.944 16.655 Q 29.328 16.655 29.658 16.655 Q 29.988 16.655 30.219 16.655 Q 30.45 16.655 30.516 16.655 Q 30.612 16.655 30.762 16.646 Q 30.912 16.637 31.02 16.625 L 31.02 17.243 Q 30.918 17.231 30.777 17.228 Q 30.636 17.225 30.516 17.225 Q 30.45 17.225 30.219 17.225 Q 29.988 17.225 29.658 17.225 Q 29.328 17.225 28.944 17.225 Q 28.56 17.225 28.179 17.225 Q 27.798 17.225 27.465 17.225 Q 27.132 17.225 26.898 17.225 Q 26.664 17.225 26.592 17.225 Q 26.454 17.225 26.31 17.228 Q 26.166 17.231 26.046 17.243 Z M 28.98 16.943 Q 28.98 17.513 28.89 17.981 Q 28.8 18.449 28.602 18.827 Q 28.494 19.025 28.311 19.232 Q 28.128 19.439 27.9 19.625 Q 27.672 19.811 27.408 19.943 L 26.856 19.541 Q 27.186 19.403 27.486 19.16 Q 27.786 18.917 27.966 18.647 Q 28.194 18.293 28.26 17.864 Q 28.326 17.435 28.332 16.943 Z M 32.081 16.937 Q 32.183 16.943 32.33 16.952 Q 32.477 16.961 32.648 16.967 Q 32.819 16.973 32.975 16.973 Q 33.095 16.973 33.305 16.973 Q 33.515 16.973 33.782 16.973 Q 34.049 16.973 34.343 16.973 Q 34.637 16.973 34.928 16.973 Q 35.219 16.973 35.477 16.973 Q 35.735 16.973 35.933 16.973 Q 36.131 16.973 36.239 16.973 Q 36.455 16.973 36.629 16.958 Q 36.803 16.943 36.911 16.937 L 36.911 17.681 Q 36.809 17.675 36.623 17.663 Q 36.437 17.651 36.239 17.651 Q 36.137 17.651 35.936 17.651 Q 35.735 17.651 35.477 17.651 Q 35.219 17.651 34.928 17.651 Q 34.637 17.651 34.343 17.651 Q 34.049 17.651 33.782 17.651 Q 33.515 17.651 33.305 17.651 Q 33.095 17.651 32.975 17.651 Q 32.729 17.651 32.483 17.66 Q 32.237 17.669 32.081 17.681 Z M 43.133 15.821 Q 43.085 15.875 43.04 15.929 Q 42.995 15.983 42.959 16.031 Q 42.791 16.313 42.548 16.643 Q 42.305 16.973 42.008 17.315 Q 41.711 17.657 41.366 17.984 Q 41.021 18.311 40.643 18.581 L 40.169 18.155 Q 40.505 17.921 40.802 17.648 Q 41.099 17.375 41.351 17.09 Q 41.603 16.805 41.795 16.544 Q 41.987 16.283 42.101 16.073 Q 41.987 16.073 41.771 16.073 Q 41.555 16.073 41.273 16.073 Q 40.991 16.073 40.679 16.073 Q 40.367 16.073 40.055 16.073 Q 39.743 16.073 39.473 16.073 Q 39.203 16.073 39.008 16.073 Q 38.813 16.073 38.729 16.073 Q 38.609 16.073 38.483 16.079 Q 38.357 16.085 38.252 16.091 Q 38.147 16.097 38.081 16.109 L 38.081 15.437 Q 38.165 15.449 38.276 15.461 Q 38.387 15.473 38.507 15.479 Q 38.627 15.485 38.729 15.485 Q 38.801 15.485 38.993 15.485 Q 39.185 15.485 39.455 15.485 Q 39.725 15.485 40.04 15.485 Q 40.355 15.485 40.679 15.485 Q 41.003 15.485 41.3 15.485 Q 41.597 15.485 41.831 15.485 Q 42.065 15.485 42.197 15.485 Q 42.497 15.485 42.659 15.431 Z M 40.163 18.677 Q 40.025 18.545 39.848 18.38 Q 39.671 18.215 39.479 18.05 Q 39.287 17.885 39.113 17.741 Q 38.939 17.597 38.813 17.513 L 39.305 17.111 Q 39.419 17.189 39.584 17.324 Q 39.749 17.459 39.944 17.621 Q 40.139 17.783 40.334 17.957 Q 40.529 18.131 40.697 18.287 Q 40.889 18.479 41.099 18.695 Q 41.309 18.911 41.501 19.118 Q 41.693 19.325 41.825 19.493 L 41.273 19.937 Q 41.153 19.775 40.967 19.556 Q 40.781 19.337 40.568 19.106 Q 40.355 18.875 40.163 18.677 Z" style="text-wrap-mode: nowrap;"/>
</svg>