<?xml version="1.0" encoding="utf-8"?>
<!-- Generator: Adobe Illustrator 24.0.1, SVG Export Plug-In . SVG Version: 6.00 Build 0)  -->
<svg version="1.1" id="图层_1" xmlns="http://www.w3.org/2000/svg" xmlns:xlink="http://www.w3.org/1999/xlink" x="0px" y="0px"
	 viewBox="0 0 69 20" style="enable-background:new 0 0 69 20;" xml:space="preserve">
<style type="text/css">
	.st0{fill:#E10000;}
</style>
<rect x="37.5" y="7" width="2" height="6"/>
<polygon class="st0" points="37.3,0 29.2,14 31.5,14 39.6,0 "/>
<g>
	<rect x="42.5" y="1" width="5" height="2"/>
	<polygon points="41.5,5 41.5,7 44.5,7 44.5,11 43.5,11 43.5,13 46.5,13 46.5,7 48.5,7 48.5,5 	"/>
</g>
<polygon class="st0" points="41.2,0 33.1,14 35.4,14 43.5,0 "/>
<g>
	<polygon points="32.5,7.5 27.5,7.5 27.5,3 31.5,3 31.5,1 21.5,1 21.5,3 25.5,3 25.5,7.5 20.5,7.5 20.5,9.5 25.5,9.5 25.5,13 
		27.5,13 27.5,9.5 32.5,9.5 	"/>
	<rect x="22.7" y="3.7" transform="matrix(0.866 -0.5 0.5 0.866 0.5262 12.4639)" width="1.7" height="3"/>
	<rect x="28" y="4.4" transform="matrix(0.5 -0.866 0.866 0.5 10.1928 28.1544)" width="3" height="1.7"/>
</g>
<g>
	<path d="M29,17c0-0.1,0-0.2,0-0.4v-0.2h1.3v-0.6h-0.4v-1.4h-0.6v1.4H29v-1.3h-0.6v2c0,0.2,0,0.4,0,0.6c0,0.2,0,0.4,0,0.6
		c0,0.2-0.1,0.4-0.1,0.6c0,0.2-0.1,0.4-0.2,0.5c0,0,0.1,0.1,0.2,0.1c0.1,0,0.1,0.1,0.2,0.1c0.1,0.1,0.1,0.1,0.1,0.1
		c0.1-0.2,0.2-0.4,0.3-0.6c0.1-0.2,0.1-0.5,0.2-0.7c0-0.2,0-0.4,0.1-0.6h0.5v1.8H30v-0.3V17H29z"/>
	<path d="M32.4,18.3C32.4,18.3,32.4,18.3,32.4,18.3c0.1-0.3,0.2-0.5,0.3-0.7c0.2-0.4,0.3-1,0.3-1.5l-0.4-0.1l-0.1,0h-0.1h-1.3v-0.6
		c0.1,0,0.3,0,0.4,0c0.3,0,0.6-0.1,0.9-0.1c0.3,0,0.5-0.1,0.8-0.1l-0.4-0.6c-0.2,0-0.4,0.1-0.7,0.1c-0.3,0-0.5,0.1-0.8,0.1
		c-0.3,0-0.5,0.1-0.8,0.1v1.8c0,0.2,0,0.4,0,0.6c0,0.2,0,0.5-0.1,0.7c0,0.2-0.1,0.5-0.1,0.7c-0.1,0.2-0.1,0.4-0.2,0.6
		c0.1,0,0.1,0.1,0.2,0.1c0.1,0,0.1,0.1,0.2,0.1c0.1,0,0.1,0.1,0.2,0.1c0.1-0.1,0.2-0.3,0.2-0.5c0,0,0.1,0.1,0.1,0.1
		c0,0.1,0.1,0.1,0.1,0.2c0,0.1,0.1,0.1,0.1,0.2c0.3-0.2,0.6-0.4,0.9-0.7c0.2,0.3,0.5,0.5,0.7,0.7c0-0.1,0.1-0.1,0.1-0.2
		c0.1-0.1,0.1-0.1,0.2-0.2c0.1-0.1,0.1-0.1,0.2-0.1C32.9,18.8,32.6,18.6,32.4,18.3z M31.8,17.4c-0.1-0.3-0.2-0.6-0.3-0.9h0.8
		c-0.1,0.3-0.1,0.6-0.2,0.8c0,0.1-0.1,0.2-0.2,0.3C31.9,17.6,31.9,17.5,31.8,17.4z M30.8,18.9C30.8,18.9,30.8,18.9,30.8,18.9
		c0.1-0.3,0.1-0.5,0.2-0.8c0-0.3,0.1-0.5,0.1-0.8c0-0.2,0-0.4,0-0.5c0.1,0.3,0.2,0.6,0.3,0.9c0.1,0.2,0.2,0.4,0.2,0.5
		c0,0,0,0.1-0.1,0.1C31.3,18.6,31.1,18.8,30.8,18.9z"/>
	<path d="M37.6,18.4C37.6,18.4,37.6,18.4,37.6,18.4l0-1.2h0.9v-0.6h-2.4v0.6H37v1.3c-0.1,0-0.2,0-0.3,0c-0.3,0-0.6,0.1-0.8,0.1
		l0.2,0.6c0.2,0,0.5-0.1,0.8-0.2c0.3-0.1,0.6-0.1,0.9-0.2c0.3-0.1,0.6-0.1,0.9-0.2l0-0.6C38.3,18.3,38,18.3,37.6,18.4z"/>
	<path d="M40.7,18c-0.1-0.1-0.2-0.1-0.3-0.2c0,0.3,0,0.6-0.1,0.7c0,0.2-0.1,0.2-0.1,0.2c-0.1,0-0.2-0.1-0.3-0.2
		c-0.1-0.2-0.2-0.4-0.3-0.6c-0.1-0.3-0.1-0.6-0.2-1c0-0.3-0.1-0.6-0.1-0.9h1.5v-0.6h-0.5l0.4-0.3c-0.1-0.1-0.1-0.1-0.2-0.2
		c-0.1-0.1-0.2-0.1-0.3-0.2c-0.1-0.1-0.2-0.1-0.3-0.2l-0.4,0.3c0.1,0.1,0.2,0.1,0.3,0.2c0.1,0.1,0.2,0.1,0.3,0.2
		c0.1,0,0.1,0.1,0.1,0.1h-0.9c0-0.3,0-0.6,0-0.9h-0.7c0,0.3,0,0.6,0,0.9h-2.7V16h2.7c0,0.3,0,0.6,0.1,0.9c0,0.4,0.1,0.7,0.2,1
		c0.1,0.3,0.2,0.6,0.3,0.8c0.1,0.2,0.2,0.4,0.4,0.5c0.2,0.1,0.3,0.2,0.5,0.2c0.2,0,0.3,0,0.4-0.1c0.1-0.1,0.2-0.2,0.3-0.4
		c0.1-0.2,0.1-0.4,0.1-0.8C40.9,18.2,40.8,18.1,40.7,18z"/>
</g>
</svg>
