<?xml version="1.0" encoding="utf-8"?>
<svg version="1.1" id="画像_1" xmlns="http://www.w3.org/2000/svg" x="0px" y="0px" viewBox="0 0 135 16" style="enable-background:new 0 0 135 16;">
  <style type="text/css">
	.st0{fill:#E10000;}
</style>
  <polygon class="st0" points="113.7875977,1 105.6875916,15 107.9875946,15 116.0875931,1 "/>
  <polygon class="st0" points="117.6875916,1 109.5875931,15 111.8875885,15 119.9875946,1 "/>
  <path d="M104,3v1c-0.8000031-0.5999999-1.9000015-1-3-1c-2.8000031,0-5,2.1999998-5,5s2.1999969,5,5,5 c1.0999985,0,2.1999969-0.3999996,3-1v1h2V3H104z M101,11c-1.6999969,0-3-1.3000002-3-3s1.3000031-3,3-3s3,1.3000002,3,3 S102.6999969,11,101,11z"/>
  <path d="M86,3v1c-0.8000031-0.5999999-1.9000015-1-3-1c-2.8000031,0-5,2.1999998-5,5s2.1999969,5,5,5 c1.0999985,0,2.1999969-0.3999996,3-1v1h2V3H86z M83,11c-1.6999969,0-3-1.3000002-3-3s1.3000031-3,3-3s3,1.3000002,3,3 S84.6999969,11,83,11z"/>
  <path d="M95,3c-1.5374146,0-2.9370728,0.5861206-3.9998169,1.5402832V3h-2v10h2V8.9981689C91.0011597,6.793457,92.7950439,5,95,5h1 V3H95z"/>
  <path d="M124.2421265,12.8256226c0.2368164-0.0609131,0.4736938-0.1225586,0.6955566-0.2159424 c0.0922852-0.0388184,0.1751709-0.0974731,0.2650146-0.1418457c0.1998901-0.0988159,0.4021606-0.1942749,0.5858154-0.3179932 c0.2480469-0.1674805,0.4804688-0.3615723,0.6990967-0.5748291c0.0150146-0.0145874,0.0335693-0.0252686,0.0483398-0.0400391 l-1.4158325-1.4138794C124.5546875,10.6884766,123.8017578,11,123,11c-1.3037109,0-2.4160156-0.8359375-2.8291016-2h7.7283325 C127.9648438,8.6768188,128,8.3425293,128,8c0-2.7568359-2.2431641-5-5-5s-5,2.2431641-5,5s2.2431641,5,5,5 c0.3422241,0,0.6761475-0.0352173,0.9990234-0.100708C124.0825195,12.8824463,124.1598511,12.8466797,124.2421265,12.8256226z M123,5c1.3037109,0,2.4160156,0.8359375,2.8291016,2h-5.6582031C120.5839844,5.8359375,121.6962891,5,123,5z"/>
  <path d="M132,13c-1.6542969,0-3-1.3457031-3-3V1h2v8.9931641C131,10.5517578,131.4482422,11,132,11V13z"/>
  <path d="M72,1h-5v12h2v-2h3c2.7999878,0,5-2.2000122,5-5S74.7999878,1,72,1z M72,9h-3V3h3c1.7000122,0,3,1.2999878,3,3 S73.7000122,9,72,9z"/>
  <path d="M8,1H3v12h2v-2h3c2.7999878,0,5-2.2000122,5-5S10.7999878,1,8,1z M8,9H5V3h3c1.7000122,0,3,1.2999878,3,3S9.7000122,9,8,9z"/>
  <path d="M19.9998169,3C18.4624023,3,17.0627441,3.5861206,16,4.5402832V3h-2v10h2V8.9981689 C16.0009766,6.793457,17.7948608,5,19.9998169,5h1V3H19.9998169z"/>
  <path d="M26,13c-2.7568359,0-5-2.2431641-5-5s2.2431641-5,5-5s5,2.2431641,5,5S28.7568359,13,26,13z M26,5 c-1.6542969,0-3,1.3457031-3,3s1.3457031,3,3,3s3-1.3457031,3-3S27.6542969,5,26,5z"/>
  <path d="M31,15c1.6542969,0,3-1.3457031,3-3V3h-2v8.9931641C32,12.5517578,31.5517578,13,31,13V15z"/>
  <path d="M41.2421265,12.8256226c0.2368164-0.0609131,0.4736938-0.1225586,0.6955566-0.2159424 c0.0922852-0.0388184,0.1751709-0.0974731,0.2650146-0.1418457c0.1998901-0.0988159,0.4021606-0.1942749,0.5858154-0.3179932 c0.2480469-0.1674805,0.4804688-0.3615723,0.6990967-0.5748291c0.0150146-0.0145874,0.0335693-0.0252686,0.0483398-0.0400391 l-1.4158325-1.4138794C41.5546875,10.6884766,40.8017578,11,40,11c-1.3037109,0-2.4160156-0.8359375-2.8291016-2h7.7283325 C44.9648438,8.6768188,45,8.3425293,45,8c0-2.7568359-2.2431641-5-5-5s-5,2.2431641-5,5s2.2431641,5,5,5 c0.3422241,0,0.6761475-0.0352173,0.9990234-0.100708C41.0825195,12.8824463,41.1598511,12.8466797,41.2421265,12.8256226z M40,5 c1.3037109,0,2.4160156,0.8359375,2.8291016,2h-5.6582031C37.5839844,5.8359375,38.6962891,5,40,5z"/>
  <path d="M51,5c1.2999992,0,2.4000015,0.8000002,2.7999992,2h2.1000023c-0.5-2.3000002-2.5-4-4.9000015-4 c-2.7999992,0-5,2.1999998-5,5s2.2000008,5,5,5c2.4000015,0,4.4000015-1.6999998,4.9000015-4h-2.1000023 c-0.3999977,1.1999998-1.5,2-2.7999992,2c-1.7000008,0-3-1.3000002-3-3S49.2999992,5,51,5z"/>
  <path d="M60,13c-1.6542969,0-3-1.3457031-3-3V1h2v8.9931641C59,10.5517578,59.4482422,11,60,11V13z"/>
  <rect x="56" y="3" width="4" height="2"/>
  <rect x="32" y="1" class="st0" width="2" height="2"/>
</svg>
